# xmcd CD database file
#
# Track frame offsets:
#	150
#	10589
#	20168
#	32617
#	42953
#	52176
#	63264
#	72216
#	82687
#	92878
#	101484
#	109020
#	117300
#	124444
#	131907
#	140199
#
# Disc length: 2046 seconds
#
# Revision: 0
# Processed by: cddbd v1.5.2PL0 Copyright (c) Steve Scherf et al.
# Submitted via: CDex 1.70beta1
#
DISCID=e207fc10
DTITLE=Richard Cheese - Aperitif For Destruction
DYEAR=2005
DGENRE=Jazz
TTITLE0=Me So Horny
TTITLE1=People Equals Shit
TTITLE2=Welcome To The Jungle
TTITLE3=Brass Monkey
TTITLE4=Let's Get It Started
TTITLE5=Man In The Box
TTITLE6=Been Caught Stealing
TTITLE7=The Girl Is Mine
TTITLE8=You Oughta Know
TTITLE9=Enter Sandman
TTITLE10=Sunday Bloody Sunday
TTITLE11=We Are The World
TTITLE12=Do Me
TTITLE13=American Idiot
TTITLE14=Add It Up
TTITLE15=Somebody Told Me
EXTD=YEAR: 2005
EXTT0=
EXTT1=
EXTT2=
EXTT3=
EXTT4=
EXTT5=
EXTT6=
EXTT7=
EXTT8=
EXTT9=
EXTT10=
EXTT11=
EXTT12=
EXTT13=
EXTT14=
EXTT15=
PLAYORDER=
